<svg xmlns="http://www.w3.org/2000/svg" version="1.1" xmlns:xlink="http://www.w3.org/1999/xlink" xmlns:svgjs="http://svgjs.dev/svgjs" width="1000" height="265" viewBox="0 0 1000 265"><g transform="matrix(1,0,0,1,-0.6060606060606233,-0.4534029231388388)"><svg viewBox="0 0 396 105" data-background-color="#ffffff" preserveAspectRatio="xMidYMid meet" height="265" width="1000" xmlns="http://www.w3.org/2000/svg" xmlns:xlink="http://www.w3.org/1999/xlink"><g id="tight-bounds" transform="matrix(1,0,0,1,0.2400000000000091,0.1796502148285981)"><svg viewBox="0 0 395.52 104.6406995703428" height="104.6406995703428" width="395.52"><g><svg viewBox="0 0 678.8606581097667 179.60268551625532" height="104.6406995703428" width="395.52"><g><rect width="6.239862249341276" height="179.60268551625532" x="260.7660779302127" y="0" fill="#f4b740" opacity="1" stroke-width="0" stroke="transparent" fill-opacity="1" class="rect-s$-0" data-fill-palette-color="primary" rx="1%" id="s$-0" data-palette-color="#f4b740"></rect></g><g transform="matrix(1,0,0,1,283.34065810976676,14.966890459687946)"><svg viewBox="0 0 395.52 149.66890459687943" height="149.66890459687943" width="395.52"><g id="textblocktransform"><svg viewBox="0 0 395.52 149.66890459687943" height="149.66890459687943" width="395.52" id="textblock"><g><svg viewBox="0 0 395.52 69.19262411347518" height="69.19262411347518" width="395.52"><g transform="matrix(1,0,0,1,0,0)"><svg width="395.52" viewBox="0.5 -36 211.48 37" height="69.19262411347518" data-palette-color="#f4b740"><path d="M7.95-35L20.5-4.25 21-4.25 33.55-35 41-35 26.75 0 14.75 0 0.5-35 7.95-35ZM56-2.25L56-2.25Q57.6-2.25 59-2.85 60.4-3.45 61.45-4.73 62.5-6 63.12-8.05 63.75-10.1 63.75-13L63.75-13Q63.75-15.9 63.12-17.95 62.5-20 61.45-21.28 60.4-22.55 59-23.15 57.6-23.75 56-23.75L56-23.75Q54.4-23.75 53-23.15 51.6-22.55 50.55-21.28 49.5-20 48.87-17.95 48.25-15.9 48.25-13L48.25-13Q48.25-10.1 48.87-8.05 49.5-6 50.55-4.73 51.6-3.45 53-2.85 54.4-2.25 56-2.25ZM56-27L56-27Q59.35-27 62.17-26.08 65-25.15 67-23.38 69-21.6 70.12-18.98 71.25-16.35 71.25-13L71.25-13Q71.25-9.6 70.12-7 69-4.4 67-2.63 65-0.85 62.17 0.08 59.35 1 56 1L56 1Q52.6 1 49.8 0.08 47-0.85 45-2.63 43-4.4 41.87-7 40.75-9.6 40.75-13L40.75-13Q40.75-16.35 41.87-18.98 43-21.6 45-23.38 47-25.15 49.8-26.08 52.6-27 56-27ZM84-35L84 0 77 0 77-35 84-35ZM93.24-9.5L93.24-22.5 88.49-22.5 88.49-26 93.24-26 93.24-34 100.24-34 100.24-26 107.99-26 107.99-22.5 100.24-22.5 100.24-9.5Q100.24-7.6 100.67-6.28 101.09-4.95 101.82-4.13 102.54-3.3 103.49-2.9 104.44-2.5 105.49-2.5L105.49-2.5Q106.99-2.5 108.39-2.98 109.79-3.45 110.74-4L110.74-4 112.24-0.75Q110.74 0 108.82 0.5 106.89 1 104.99 1L104.99 1Q99.34 1 96.29-1.8 93.24-4.6 93.24-9.5L93.24-9.5ZM120.99-8.25L120.99-8.25Q120.99-3.5 126.74-3.5L126.74-3.5 133.74-3.5 133.74-13 126.74-13Q120.99-13 120.99-8.25ZM126.74-16.5L133.74-16.5Q133.74-20.1 131.87-21.8 129.99-23.5 126.99-23.5L126.99-23.5Q124.74-23.5 122.59-22.83 120.44-22.15 118.74-21L118.74-21 116.99-24Q118.09-24.75 119.42-25.3 120.74-25.85 122.14-26.23 123.54-26.6 124.92-26.8 126.29-27 127.49-27L127.49-27Q130.69-27 133.14-26.25 135.59-25.5 137.29-24.1 138.99-22.7 139.87-20.78 140.74-18.85 140.74-16.5L140.74-16.5 140.74 0 126.74 0Q119.94 0 116.72-2.05 113.49-4.1 113.49-8.25L113.49-8.25Q113.49-12.4 116.72-14.45 119.94-16.5 126.74-16.5L126.74-16.5ZM154.74-25.5L154.74 0 147.74 0 147.74-25.5 154.74-25.5ZM154.99-32.25L154.99-32.25Q154.99-30.75 153.96-29.63 152.94-28.5 151.24-28.5L151.24-28.5Q149.54-28.5 148.51-29.63 147.49-30.75 147.49-32.25L147.49-32.25Q147.49-33.75 148.51-34.88 149.54-36 151.24-36L151.24-36Q152.89-36 153.94-34.88 154.99-33.75 154.99-32.25ZM181.74-26L181.74-22.5 175.74-22.5Q172.34-22.5 170.54-20.68 168.74-18.85 168.74-15.25L168.74-15.25 168.74 0 161.74 0 161.74-15.25Q161.74-20.35 164.96-23.18 168.19-26 174.24-26L174.24-26 181.74-26ZM199.23-2.5L199.23-2.5Q201.68-2.5 203.81-3.35 205.93-4.2 207.98-5.75L207.98-5.75 209.98-2.75Q209.03-1.9 207.76-1.2 206.48-0.5 205.01-0.03 203.53 0.45 201.93 0.73 200.33 1 198.73 1L198.73 1Q195.18 1 192.26 0.08 189.33-0.85 187.28-2.63 185.23-4.4 184.11-7 182.98-9.6 182.98-13L182.98-13Q182.98-16.35 184.06-18.98 185.13-21.6 187.06-23.38 188.98-25.15 191.63-26.08 194.28-27 197.48-27L197.48-27Q200.48-27 203.13-26.1 205.78-25.2 207.73-23.48 209.68-21.75 210.83-19.3 211.98-16.85 211.98-13.75L211.98-13.75 211.98-10.25 190.63-10.25Q191.23-6.1 193.51-4.3 195.78-2.5 199.23-2.5ZM197.48-23.75L197.48-23.75Q196.03-23.75 194.78-23.2 193.53-22.65 192.61-21.45 191.68-20.25 191.11-18.35 190.53-16.45 190.48-13.75L190.48-13.75 204.48-13.75Q204.48-16.35 203.88-18.25 203.28-20.15 202.31-21.38 201.33-22.6 200.06-23.18 198.78-23.75 197.48-23.75Z" opacity="1" transform="matrix(1,0,0,1,0,0)" fill="#f4b740" class="undefined-text-0" data-fill-palette-color="primary" id="text-0"></path></svg></g></svg></g><g transform="matrix(1,0,0,1,0,85.52734204368794)"><svg viewBox="0 0 395.52 64.14156255319148" height="64.14156255319148" width="395.52"><g transform="matrix(1,0,0,1,0,0)"><svg width="395.52" viewBox="1.6 -44.4 396.81 64.35" height="64.14156255319148" data-palette-color="#f4b740"><path d="M1.9 0Q1.6 0 1.6-0.45L1.6-0.45Q1.6-0.95 1.9-1.55 2.2-2.15 2.65-2.55L2.65-2.55Q3.9-3.55 4.33-4.03 4.75-4.5 5-5.15 5.25-5.8 5.6-7.45L5.6-7.45 10.75-31.5 10.4-31.5Q10.1-31.5 9.1-31.6L9.1-31.6Q7.3-31.75 7.15-31.75L7.15-31.75Q4.35-31.75 2.9-29.9L2.9-29.9Q2.8-29.75 2.55-29.38 2.3-29 2.1-29L2.1-29Q1.85-29 1.85-29.45L1.85-29.45Q1.85-29.95 2-30.3L2-30.3Q2.5-32.4 4.15-33.55 5.8-34.7 8.2-34.7L8.2-34.7 9.85-34.65Q11.25-34.55 12.1-34.55L12.1-34.55Q12.9-34.55 13.9-34.65L13.9-34.65 15.2-34.7Q15-34.05 15-32.8L15-32.8Q15-31.15 15.48-28.63 15.95-26.1 16.95-21.7L16.95-21.7 18.5-14.45Q18.6-14 19.15-10.8L19.15-10.8Q21.25-14.95 24.73-21.83 28.2-28.7 30.4-33L30.4-33Q32.3-36.6 33.93-38.68 35.55-40.75 37.3-41.95L37.3-41.95Q38.75-42.9 40.25-43.33 41.75-43.75 43.95-43.9L43.95-43.9Q45.65-44 46.15-44.2L46.15-44.2Q46.25-44.25 46.38-44.33 46.5-44.4 46.6-44.4L46.6-44.4Q46.85-44.4 46.85-44L46.85-44Q46.85-42.3 43.75-41.8L43.75-41.8Q43.55-41.75 42.5-41.6 41.45-41.45 40.43-41.08 39.4-40.7 38.65-40.1L38.65-40.1Q37-38.8 35.8-35.83 34.6-32.85 33.85-27.4L33.85-27.4Q33.5-25.2 33-19.5L33-19.5Q32.4-12 31.35-5.5L31.35-5.5Q31.2-4.3 30.4-3.4L30.4-3.4 30.4-3.35Q31.65-2.9 32.5-2.9L32.5-2.9Q33.2-2.9 33.95-3.18 34.7-3.45 34.85-3.45L34.85-3.45Q35.1-3.45 35.1-3.15L35.1-3.15Q35.1-2.75 34.45-2.05L34.45-2.05Q32.7 0 31.45 0L31.45 0Q31.05 0 29.55-0.4L29.55-0.4Q27.75-0.85 27.2-0.85L27.2-0.85Q26.3-0.85 25.33-0.43 24.35 0 24.25 0L24.25 0Q23.95 0 23.95-0.45L23.95-0.45Q23.95-0.9 24.25-1.48 24.55-2.05 25.15-2.55L25.15-2.55Q26.6-3.6 27.03-4.15 27.45-4.7 27.6-5.65L27.6-5.65 27.85-7.9Q28.4-12.9 28.93-17.6 29.45-22.3 29.9-26.4L29.9-26.4 29.8-26.4Q22.1-12.75 19.9-6.8L19.9-6.8Q19.15-5.2 18.15-3.65 17.15-2.1 16.7-2.1L16.7-2.1Q16.3-2.1 16.3-2.6L16.3-2.6Q16.15-5.65 15.83-7.88 15.5-10.1 14.5-14.95L14.5-14.95Q13.7-18.95 13.7-18.95L13.7-18.95Q12.75-23.15 12.35-25.65L12.35-25.65 12.3-25.65 8.1-5.5Q7.95-4.25 7.2-3.4L7.2-3.4 7.2-3.35Q8.55-2.9 9.2-2.9L9.2-2.9Q9.8-2.9 10.35-3.18 10.9-3.45 11.05-3.45L11.05-3.45Q11.3-3.45 11.3-3.15L11.3-3.15Q11.3-2.7 10.65-2.05L10.65-2.05Q8.75 0 7.65 0L7.65 0Q7.2 0 6.2-0.4L6.2-0.4Q6.05-0.45 5.48-0.65 4.9-0.85 4.35-0.85L4.35-0.85Q3.55-0.85 2.8-0.43 2.05 0 1.9 0L1.9 0ZM61.58 0.5Q59.03 0.5 59.03-4.35L59.03-4.35Q59.03-9 61.05-13.53 63.08-18.05 66.53-20.93 69.98-23.8 73.98-23.8L73.98-23.8Q76.03-23.8 77.53-23.15L77.53-23.15Q76.88-20.6 76.63-19.4L76.63-19.4 75.58-14Q74.18-7.6 73.88-5.15L73.88-5.15Q73.83-4.8 73.83-4.3L73.83-4.3Q73.83-3.2 74.48-3.2L74.48-3.2Q75.28-3.2 75.98-4.23 76.68-5.25 77.58-7.15L77.58-7.15Q77.63-7.2 77.75-7.45 77.88-7.7 78.08-7.7L78.08-7.7Q78.38-7.7 78.38-7.1L78.38-7.1 78.28-6.3Q77.93-4.65 76.85-3.05 75.78-1.45 74.45-0.48 73.13 0.5 72.08 0.5L72.08 0.5Q70.33 0.5 70.33-2.35L70.33-2.35Q70.33-3.45 70.58-4.6L70.58-4.6 71.43-8.95 71.38-8.95Q68.98-4.75 66.25-2.13 63.53 0.5 61.58 0.5L61.58 0.5ZM63.93-3.6Q65.33-3.6 67.15-5.78 68.98-7.95 70.55-11.1 72.13-14.25 72.73-16.75L72.73-16.75 73.53-19.95Q72.03-20.95 70.38-20.95L70.38-20.95Q68.23-20.95 66.45-18.48 64.68-16 63.68-12.48 62.68-8.95 62.68-6.1L62.68-6.1Q62.68-4.85 62.95-4.23 63.23-3.6 63.93-3.6L63.93-3.6ZM103.56 0.5Q103.11 0.5 103.11 0.2L103.11 0.2Q103.11 0 103.33-0.68 103.56-1.35 103.96-3L103.96-3Q104.96-7.15 106.36-16.85L106.36-16.85Q106.66-18.75 106.66-19.5L106.66-19.5Q106.66-20.15 106.36-20.15L106.36-20.15Q105.51-20.15 103.81-17.15L103.81-17.15Q103.56-16.7 103.36-16.38 103.16-16.05 103.03-15.9 102.91-15.75 102.76-15.75L102.76-15.75Q102.36-15.75 102.36-16.25L102.36-16.25Q102.36-17.25 103.46-19.1 104.56-20.95 106.06-22.38 107.56-23.8 108.76-23.8L108.76-23.8Q109.56-23.8 109.91-23.1 110.26-22.4 110.26-21.35L110.26-21.35Q110.26-19.7 109.46-14.9L109.46-14.9 109.51-14.9Q111.81-18.95 114.56-21.38 117.31-23.8 119.31-23.8L119.31-23.8Q121.41-23.8 121.41-20.85L121.41-20.85Q121.41-19.75 120.96-17.15L120.96-17.15 119.81-11.15Q118.56-4.8 118.56-3.95L118.56-3.95Q118.56-3.6 118.73-3.33 118.91-3.05 119.31-3.05L119.31-3.05Q120.66-3.05 122.41-7.15L122.41-7.15Q122.56-7.7 122.91-7.7L122.91-7.7Q123.21-7.7 123.21-7.1L123.21-7.1Q123.21-6.65 123.16-6.3L123.16-6.3Q122.81-4.5 121.71-2.93 120.61-1.35 119.26-0.43 117.91 0.5 116.81 0.5L116.81 0.5Q115.76 0.5 115.38-0.38 115.01-1.25 115.01-2.3L115.01-2.3Q115.01-4.55 116.26-10.4L116.26-10.4Q117.46-16.1 117.56-18.3L117.56-18.3Q117.61-19.2 117.43-19.58 117.26-19.95 116.61-19.95L116.61-19.95Q115.06-19.95 113.28-17.9 111.51-15.85 110.11-12.88 108.71-9.9 108.26-7.45L108.26-7.45 107.46-3.1Q107.16-1.8 105.86-0.65 104.56 0.5 103.56 0.5L103.56 0.5ZM151.39 0.5Q149.29 0.5 149.29-2.65L149.29-2.65Q149.29-4.2 149.79-7.05L149.79-7.05 151.49-17.35Q151.69-19.15 151.69-19.4L151.69-19.4Q151.69-20.15 151.29-20.15L151.29-20.15Q150.14-20.15 148.59-17.15L148.59-17.15Q148.49-16.95 148.26-16.48 148.04-16 147.89-15.88 147.74-15.75 147.59-15.75L147.59-15.75Q147.49-15.75 147.39-15.93 147.29-16.1 147.29-16.35L147.29-16.35Q147.29-17.35 148.31-19.18 149.34-21 150.84-22.4 152.34-23.8 153.69-23.8L153.69-23.8Q154.49-23.8 154.96-23.13 155.44-22.45 155.44-21.3L155.44-21.3Q155.44-20.55 155.34-20.15L155.34-20.15 152.99-5.4Q152.89-4.7 152.89-4.5L152.89-4.5Q152.89-3.45 153.69-3.45L153.69-3.45Q155.34-3.45 157.26-5.68 159.19-7.9 160.66-11 162.14-14.1 162.59-16.45L162.59-16.45 163.29-20.1Q163.69-21.9 164.91-22.85 166.14-23.8 167.19-23.8L167.19-23.8Q167.59-23.8 167.59-23.55L167.59-23.55Q167.59-23.4 167.39-22.98 167.19-22.55 167.09-21.95L167.09-21.95Q166.39-18.85 164.34-7.55L164.34-7.55 164.04-5.95Q163.69-4.2 163.69-3.8L163.69-3.8Q163.69-3.1 164.14-3.1L164.14-3.1Q164.94-3.1 165.91-4.38 166.89-5.65 167.49-7.15L167.49-7.15Q167.79-7.7 167.99-7.7L167.99-7.7Q168.29-7.7 168.29-7.25L168.29-7.25Q168.29-6.7 168.19-6.3L168.19-6.3Q167.84-4.5 166.79-2.95 165.74-1.4 164.44-0.45 163.14 0.5 162.04 0.5L162.04 0.5Q160.09 0.5 160.19-2.6L160.19-2.6Q160.29-3.95 160.79-6.25L160.79-6.25 161.24-8.7 161.19-8.7Q158.59-4.55 155.89-2.02 153.19 0.5 151.39 0.5L151.39 0.5ZM195.21 0.5Q193.66 0.5 192.56-0.35 191.46-1.2 191.11-2.6L191.11-2.6Q191.01-3 191.44-3.88 191.86-4.75 192.56-5.6L192.56-5.6Q192.96-6.05 193.21-6.05L193.21-6.05Q193.46-6.05 193.61-5.65L193.61-5.65Q195.11-2.15 197.76-2.15L197.76-2.15Q199.11-2.15 199.89-2.98 200.66-3.8 200.66-5.2L200.66-5.2Q200.66-7.1 198.51-10.1L198.51-10.1 197.46-11.6Q196.26-13.3 195.79-14.4 195.31-15.5 195.31-16.75L195.31-16.75Q195.31-18.75 196.39-20.35 197.46-21.95 199.21-22.88 200.96-23.8 202.86-23.8L202.86-23.8Q206.46-23.8 206.46-21.35L206.46-21.35Q206.46-20.45 205.81-19.55L205.81-19.55Q205.46-18.95 205.21-18.95L205.21-18.95Q204.91-18.95 204.66-19.55L204.66-19.55Q204.11-20.5 203.34-20.93 202.56-21.35 201.36-21.35L201.36-21.35Q199.96-21.35 199.11-20.6 198.26-19.85 198.26-18.7L198.26-18.7Q198.26-18.05 198.69-17.23 199.11-16.4 200.31-14.7L200.31-14.7 201.36-13.25Q202.76-11.4 203.31-10.08 203.86-8.75 203.86-7.3L203.86-7.3Q203.86-5.45 202.66-3.63 201.46-1.8 199.46-0.65 197.46 0.5 195.21 0.5L195.21 0.5ZM233.34 0.5Q231.19 0.5 230.14-1.43 229.09-3.35 229.09-6L229.09-6Q229.09-9.8 230.92-14 232.74-18.2 235.64-21 238.54-23.8 241.64-23.8L241.64-23.8Q242.99-23.8 243.77-23.28 244.54-22.75 244.54-21.9L244.54-21.9Q244.54-21.1 243.94-20.05L243.94-20.05Q243.59-19.45 243.29-19.45L243.29-19.45Q243.09-19.45 242.94-19.7L242.94-19.7Q241.84-21.15 240.19-21.15L240.19-21.15Q238.19-21.15 236.47-19.48 234.74-17.8 233.74-15 232.74-12.2 232.74-8.95L232.74-8.95Q232.74-3.35 235.84-3.35L235.84-3.35Q237.44-3.35 238.59-4.55 239.74-5.75 240.74-7.5L240.74-7.5Q240.84-7.65 240.99-7.9 241.14-8.15 241.27-8.25 241.39-8.35 241.59-8.35L241.59-8.35Q241.74-8.35 241.84-8.18 241.94-8 241.94-7.75L241.94-7.75Q241.94-6.3 240.59-4.33 239.24-2.35 237.22-0.93 235.19 0.5 233.34 0.5L233.34 0.5ZM268.37 0.5Q268.17 0.5 268.05 0.43 267.92 0.35 267.92 0.25L267.92 0.25Q267.92 0.1 268.22-0.4 268.52-0.9 268.67-1.8L268.67-1.8Q268.87-2.85 269.02-3.73 269.17-4.6 269.32-5.35L269.32-5.35Q270.57-12.2 271-14.93 271.42-17.65 271.37-18.9L271.37-18.9Q271.37-19.55 271.27-19.85 271.17-20.15 270.82-20.15L270.82-20.15Q270.37-20.15 269.67-19.4 268.97-18.65 268.37-17.65L268.37-17.65Q268.12-17.2 267.92-16.88 267.72-16.55 267.6-16.4 267.47-16.25 267.32-16.25L267.32-16.25Q267.12-16.25 267.02-16.4 266.92-16.55 266.92-16.8L266.92-16.8Q266.92-17.75 268-19.45 269.07-21.15 270.55-22.48 272.02-23.8 273.17-23.8L273.17-23.8Q274.12-23.8 274.5-23.05 274.87-22.3 274.87-20.7L274.87-20.7Q274.87-18.5 273.92-14.75L273.92-14.75 274.02-14.75Q278.77-23.8 282.82-23.8L282.82-23.8Q283.87-23.8 284.45-23.23 285.02-22.65 285.02-21.6L285.02-21.6Q285.02-20.5 284.55-19.35 284.07-18.2 283.4-17.45 282.72-16.7 282.17-16.7L282.17-16.7Q281.82-16.7 281.92-17.15L281.92-17.15Q282.07-17.85 282.07-18.25L282.07-18.25Q282.07-19.45 280.77-19.45L280.77-19.45Q279.22-19.45 277.67-17.65 276.12-15.85 274.95-13.25 273.77-10.65 273.32-8.5L273.32-8.5Q272.72-6.2 272.57-3.7L272.57-3.7Q272.47-2.75 271.7-1.78 270.92-0.8 269.92-0.15 268.92 0.5 268.37 0.5L268.37 0.5ZM313.15-26.65Q312.65-26.65 312.7-27.15L312.7-27.15 313.3-30.65Q313.55-32.1 314.37-32.88 315.2-33.65 316.45-33.65L316.45-33.65 316.65-33.65Q316.95-33.65 317.02-33.55 317.1-33.45 317.05-33.15L317.05-33.15 316.5-29.7Q316.3-28.3 315.45-27.48 314.6-26.65 313.35-26.65L313.35-26.65 313.15-26.65ZM310.2 0.5Q308.6 0.5 308.6-1.8L308.6-1.8Q308.6-2.95 308.9-4.45L308.9-4.45 311.3-17.8Q311.5-19.1 311.5-19.4L311.5-19.4Q311.5-20.15 311.05-20.15L311.05-20.15Q310.45-20.15 309.6-19.2 308.75-18.25 307.75-16.2L307.75-16.2Q307.55-15.6 307.25-15.6L307.25-15.6Q306.95-15.6 306.95-16.1L306.95-16.1Q306.95-17.3 308.02-19.18 309.1-21.05 310.67-22.43 312.25-23.8 313.6-23.8L313.6-23.8Q315.15-23.8 315.15-21.6L315.15-21.6Q315.15-20.55 314.85-18.85L314.85-18.85 312.25-4.4 312.15-3.75Q312.15-3.2 312.6-3.2L312.6-3.2Q313.2-3.2 314.05-4.17 314.9-5.15 315.9-7.15L315.9-7.15Q316.15-7.7 316.4-7.7L316.4-7.7Q316.7-7.7 316.7-7.05L316.7-7.05Q316.7-5.9 315.62-4.08 314.55-2.25 313-0.88 311.45 0.5 310.2 0.5L310.2 0.5ZM333.18 19.95Q330.48 19.95 328.33 18.53 326.18 17.1 325.33 14.55L325.33 14.55Q325.23 14.15 325.23 13.9L325.23 13.9Q325.23 12.95 325.9 12.08 326.58 11.2 327.43 10.85L327.43 10.85 327.83 10.75Q328.03 10.75 328.08 11 328.13 11.25 328.13 11.3L328.13 11.3Q328.53 14.45 330.15 16.1 331.78 17.75 334.48 17.75L334.48 17.75Q337.58 17.75 339.48 14.83 341.38 11.9 342.33 5.65L342.33 5.65 345.83-16.85Q346.13-18.65 346.13-19.4L346.13-19.4Q346.13-20.15 345.73-20.15L345.73-20.15Q345.28-20.15 344.58-19.4 343.88-18.65 343.28-17.65L343.28-17.65Q343.08-17.35 342.83-16.93 342.58-16.5 342.43-16.38 342.28-16.25 342.13-16.25L342.13-16.25Q341.83-16.25 341.83-16.8L341.83-16.8Q341.83-17.7 342.93-19.43 344.03-21.15 345.5-22.48 346.98-23.8 348.08-23.8L348.08-23.8Q348.98-23.8 349.4-23.13 349.83-22.45 349.73-21.35L349.73-21.35Q349.58-19.85 349.08-16.85L349.08-16.85Q348.78-15.15 348.68-14.5L348.68-14.5 348.73-14.5Q350.68-18.05 353.4-20.93 356.13-23.8 358.13-23.8L358.13-23.8Q359.58-23.8 360.13-22.35 360.68-20.9 360.68-17.75L360.68-17.75Q360.68-13.45 358.73-9.18 356.78-4.9 353.7-2.2 350.63 0.5 347.38 0.5L347.38 0.5Q346.93 0.5 346.53 0.35L346.53 0.35 345.68 5.35Q344.93 9.65 343.15 12.98 341.38 16.3 338.8 18.13 336.23 19.95 333.18 19.95L333.18 19.95ZM350.28-2.5Q352.18-2.5 353.73-4.78 355.28-7.05 356.15-10.38 357.03-13.7 357.03-16.6L357.03-16.6Q357.03-18.25 356.78-18.98 356.53-19.7 355.98-19.7L355.98-19.7Q354.63-19.7 352.78-17.6 350.93-15.5 349.43-12.4 347.93-9.3 347.53-6.5L347.53-6.5 347.03-3.4Q347.83-2.9 348.58-2.7 349.33-2.5 350.28-2.5L350.28-2.5ZM389.66 0.5Q388.16 0.5 387.56-0.53 386.96-1.55 386.96-3.3L386.96-3.3Q386.96-4.6 387.18-6.08 387.41-7.55 387.46-7.85L387.46-7.85 389.51-20.7 384.46-20.7Q384.21-20.7 384.21-20.95L384.21-20.95Q384.21-21.45 385.31-22.38 386.41-23.3 386.91-23.3L386.91-23.3 389.91-23.3 390.41-26.4Q390.61-28.05 391.96-29.35 393.31-30.65 394.66-30.65L394.66-30.65Q394.91-30.65 394.91-30.4L394.91-30.4Q394.91-30.2 394.46-29.23 394.01-28.25 393.81-27.15L393.81-27.15 393.21-23.3 398.11-23.3Q398.41-23.3 398.41-23L398.41-23Q398.41-22.6 397.23-21.65 396.06-20.7 395.71-20.7L395.71-20.7 392.91-20.7 390.86-7.95Q390.81-7.6 390.58-6.25 390.36-4.9 390.36-4.15L390.36-4.15Q390.36-2.5 391.46-2.5L391.46-2.5Q392.26-2.5 393.16-3.28 394.06-4.05 394.76-5.45L394.76-5.45Q394.81-5.55 394.88-5.65 394.96-5.75 395.06-5.75L395.06-5.75Q395.31-5.75 395.31-5.1L395.31-5.1Q395.31-4.1 394.43-2.75 393.56-1.4 392.23-0.45 390.91 0.5 389.66 0.5L389.66 0.5Z" opacity="1" transform="matrix(1,0,0,1,0,0)" fill="#f4b740" class="undefined-text-1" data-fill-palette-color="secondary" id="text-1"></path></svg></g></svg></g></svg></g></svg></g><g transform="matrix(1,0,0,1,0,1.6434711346126534)"><svg viewBox="0 0 244.43135999999996 176.31574324703" height="176.31574324703" width="244.43135999999996"><g><svg xmlns="http://www.w3.org/2000/svg" xmlns:xlink="http://www.w3.org/1999/xlink" version="1.1" x="0" y="0" viewBox="5 17.999000000000002 91.499 66.001" enable-background="new 0 0 100 100" xml:space="preserve" height="176.31574324703" width="244.43135999999996" class="icon-icon-0" data-fill-palette-color="accent" id="icon-0"><path d="M48.825 39H23.64c-0.829 0-1.5 0.671-1.5 1.5s0.671 1.5 1.5 1.5h25.186c0.829 0 1.5-0.671 1.5-1.5S49.654 39 48.825 39z" fill="#f4b740" data-fill-palette-color="accent"></path><path d="M48.825 47H23.64c-0.829 0-1.5 0.671-1.5 1.5s0.671 1.5 1.5 1.5h25.186c0.829 0 1.5-0.671 1.5-1.5S49.654 47 48.825 47z" fill="#f4b740" data-fill-palette-color="accent"></path><path d="M48.825 56H23.64c-0.829 0-1.5 0.672-1.5 1.5s0.671 1.5 1.5 1.5h25.186c0.829 0 1.5-0.672 1.5-1.5S49.654 56 48.825 56z" fill="#f4b740" data-fill-palette-color="accent"></path><path d="M44.628 64H23.64c-0.829 0-1.5 0.672-1.5 1.5s0.671 1.5 1.5 1.5h20.988c0.829 0 1.5-0.672 1.5-1.5S45.457 64 44.628 64z" fill="#f4b740" data-fill-palette-color="accent"></path><path d="M40.43 73H23.64c-0.829 0-1.5 0.672-1.5 1.5s0.671 1.5 1.5 1.5H40.43c0.829 0 1.5-0.672 1.5-1.5S41.259 73 40.43 73z" fill="#f4b740" data-fill-palette-color="accent"></path><path d="M96.499 36.621c0-10.268-8.354-18.622-18.622-18.622-0.11 0-0.22 0.002-0.33 0.003C77.52 18 77.491 18 77.463 18H35.487C13.258 18 13 40.261 13 40.486v33.577C13 74.769 12.752 81 6.104 81H5v3h43.08c7.827 0 9.92-6.51 9.92-9.932V52h23.331c0.116 0 0.228-0.096 0.336-0.121C89.877 51.683 96.499 44.877 96.499 36.621zM55 74.062C55 74.769 54.729 81 48.08 81H13.452C15.361 79 16 75.97 16 74.068V40.486c0-0.049 0.029-4.948 2.465-9.822C21.672 24.251 27.399 21 35.487 21h31.066c-6.759 4-11.372 11.065-11.571 19.344-0.005 0.047-0.007 0.094-0.007 0.142 0 0.028 0.013 0.056 0.014 0.084C54.989 40.68 55 40.79 55 40.9V74.062zM58 42h11.06c0.587 3 2.069 5 4.113 7H58V42zM81.242 48.818c-4.821 0-8.863-3.608-9.399-8.375l-0.011-0.1C71.756 39.577 71.11 39 70.34 39H58.067c0.966-10 9.481-17.994 19.81-17.994 8.614 0 15.622 7.004 15.622 15.619C93.499 43.35 88.027 48.818 81.242 48.818z" fill="#f4b740" data-fill-palette-color="accent"></path></svg></g></svg></g></svg></g><defs></defs></svg><rect width="395.52" height="104.6406995703428" fill="none" stroke="none" visibility="hidden"></rect></g></svg></g></svg>